<?xml version="1.0" encoding="UTF-8" standalone="no"?>
<!-- Created with Inkscape (http://www.inkscape.org/) -->

<svg
   xmlns:dc="http://purl.org/dc/elements/1.1/"
   xmlns:cc="http://creativecommons.org/ns#"
   xmlns:rdf="http://www.w3.org/1999/02/22-rdf-syntax-ns#"
   xmlns:svg="http://www.w3.org/2000/svg"
   xmlns="http://www.w3.org/2000/svg"
   xmlns:xlink="http://www.w3.org/1999/xlink"
   xmlns:sodipodi="http://sodipodi.sourceforge.net/DTD/sodipodi-0.dtd"
   xmlns:inkscape="http://www.inkscape.org/namespaces/inkscape"
   width="165.81989"
   height="45.715908"
   id="svg2"
   version="1.1"
   inkscape:version="0.48.5 r10040"
   sodipodi:docname="museum.svg">
  <defs
     id="defs4">
    <linearGradient
       inkscape:collect="always"
       xlink:href="#linearGradient4368"
       id="linearGradient3412"
       gradientUnits="userSpaceOnUse"
       gradientTransform="translate(512.28023,-178.79463)"
       x1="167.14285"
       y1="408.3056"
       x2="262.32144"
       y2="503.75897" />
    <linearGradient
       id="linearGradient3400">
      <stop
         id="stop3402"
         offset="0"
         style="stop-color:#edeff3;stop-opacity:1;" />
      <stop
         id="stop3404"
         offset="1"
         style="stop-color:#ada4ab;stop-opacity:1;" />
    </linearGradient>
    <linearGradient
       y2="503.75897"
       x2="262.32144"
       y1="408.3056"
       x1="167.14285"
       gradientTransform="translate(512.28023,-178.79463)"
       gradientUnits="userSpaceOnUse"
       id="linearGradient3398"
       xlink:href="#linearGradient4368"
       inkscape:collect="always" />
    <linearGradient
       id="linearGradient4368">
      <stop
         id="stop4370"
         offset="0"
         style="stop-color:#edeff3;stop-opacity:1;" />
      <stop
         id="stop4374"
         offset="1"
         style="stop-color:#ada4ab;stop-opacity:1;" />
    </linearGradient>
    <linearGradient
       y2="503.75897"
       x2="262.32144"
       y1="408.3056"
       x1="167.14285"
       gradientTransform="translate(512.28023,-178.79463)"
       gradientUnits="userSpaceOnUse"
       id="linearGradient4754"
       xlink:href="#linearGradient4368"
       inkscape:collect="always" />
    <linearGradient
       id="linearGradient3388">
      <stop
         id="stop3390"
         style="stop-color:#ffffff;stop-opacity:0.72284645;"
         offset="0" />
      <stop
         id="stop3392"
         style="stop-color:#888888;stop-opacity:0.71535581;"
         offset="1" />
    </linearGradient>
    <linearGradient
       y2="622.15186"
       x2="291.59088"
       y1="622.15186"
       x1="171.1123"
       gradientTransform="translate(371.24704,-342.7564)"
       gradientUnits="userSpaceOnUse"
       id="linearGradient3386"
       xlink:href="#linearGradient4792"
       inkscape:collect="always" />
    <linearGradient
       id="linearGradient3380">
      <stop
         offset="0"
         style="stop-color:#6c6d6f;stop-opacity:1"
         id="stop3382" />
      <stop
         offset="1"
         style="stop-color:#010101;stop-opacity:1"
         id="stop3384" />
    </linearGradient>
    <linearGradient
       y2="471.79471"
       x2="202.85715"
       y1="445.62701"
       x1="202.85715"
       gradientTransform="translate(394.10418,-179.18497)"
       gradientUnits="userSpaceOnUse"
       id="linearGradient3378"
       xlink:href="#linearGradient3734"
       inkscape:collect="always" />
    <linearGradient
       id="linearGradient4792">
      <stop
         id="stop4794"
         style="stop-color:#ffffff;stop-opacity:0.72284645;"
         offset="0" />
      <stop
         id="stop4796"
         style="stop-color:#888888;stop-opacity:0.71535581;"
         offset="1" />
    </linearGradient>
    <linearGradient
       y2="622.15186"
       x2="291.59088"
       y1="622.15186"
       x1="171.1123"
       gradientTransform="translate(371.24704,-342.7564)"
       gradientUnits="userSpaceOnUse"
       id="linearGradient4752"
       xlink:href="#linearGradient4792"
       inkscape:collect="always" />
    <linearGradient
       id="linearGradient3734">
      <stop
         offset="0"
         style="stop-color:#6c6d6f;stop-opacity:1"
         id="stop3736" />
      <stop
         offset="1"
         style="stop-color:#010101;stop-opacity:1"
         id="stop3738" />
    </linearGradient>
    <linearGradient
       y2="471.79471"
       x2="202.85715"
       y1="445.62701"
       x1="202.85715"
       gradientTransform="translate(394.10418,-179.18497)"
       gradientUnits="userSpaceOnUse"
       id="linearGradient4750"
       xlink:href="#linearGradient3734"
       inkscape:collect="always" />
    <linearGradient
       id="linearGradient4064">
      <stop
         id="stop4066"
         offset="0"
         style="stop-color:#1599dc;stop-opacity:1;" />
      <stop
         style="stop-color:#1599dc;stop-opacity:1;"
         offset="0.56904972"
         id="stop4070" />
      <stop
         id="stop4068"
         offset="1"
         style="stop-color:#0976b4;stop-opacity:1;" />
    </linearGradient>
  </defs>
  <sodipodi:namedview
     id="base"
     pagecolor="#ffffff"
     bordercolor="#666666"
     borderopacity="1.0"
     inkscape:pageopacity="0.0"
     inkscape:pageshadow="2"
     inkscape:zoom="3.959798"
     inkscape:cx="20.205385"
     inkscape:cy="17.479849"
     inkscape:document-units="px"
     inkscape:current-layer="g4234"
     showgrid="false"
     inkscape:window-width="1916"
     inkscape:window-height="1039"
     inkscape:window-x="0"
     inkscape:window-y="39"
     inkscape:window-maximized="0"
     fit-margin-top="0"
     fit-margin-left="0"
     fit-margin-right="0"
     fit-margin-bottom="0" />
  <metadata
     id="metadata7">
    <rdf:RDF>
      <cc:Work
         rdf:about="">
        <dc:format>image/svg+xml</dc:format>
        <dc:type
           rdf:resource="http://purl.org/dc/dcmitype/StillImage" />
        <dc:title></dc:title>
      </cc:Work>
    </rdf:RDF>
  </metadata>
  <g
     inkscape:label="Calque 1"
     inkscape:groupmode="layer"
     id="layer1"
     transform="translate(-434.85003,-292.69189)">
    <text
       xml:space="preserve"
       style="font-size:37.22769928px;font-style:normal;font-variant:normal;font-weight:normal;font-stretch:normal;line-height:125%;letter-spacing:0px;word-spacing:0px;fill:#000000;fill-opacity:1;stroke:none;font-family:Anonymous Pro;-inkscape-font-specification:Anonymous Pro"
       x="457.19379"
       y="330.96115"
       id="text4010"
       sodipodi:linespacing="125%"><tspan
         sodipodi:role="line"
         id="tspan4012"
         x="457.19379"
         y="330.96115"
         style="font-style:normal;font-variant:normal;font-weight:500;font-stretch:normal;font-family:CMU Serif;-inkscape-font-specification:CMU Serif Medium">.museum</tspan></text>
    <g
       id="g4211">
      <g
         transform="matrix(0.34419709,-0.93342037,0.9427602,0.34078715,-6.8762379,636.66782)"
         style="font-size:37.22769928px;font-style:normal;font-variant:normal;font-weight:normal;font-stretch:normal;line-height:125%;letter-spacing:0px;word-spacing:0px;fill:#b3b3b3;fill-opacity:1;stroke:none;font-family:Anonymous Pro;-inkscape-font-specification:Anonymous Pro"
         id="g4045">
        <path
           inkscape:connector-curvature="0"
           d="m 460.91656,330.36551 c -0.37228,-0.3971 -0.55842,-0.85624 -0.55842,-1.37743 0,-0.52118 0.18614,-0.96791 0.55842,-1.34019 0.37227,-0.3971 0.84382,-0.59564 1.41465,-0.59565 0.546,1e-5 1.00514,0.18614 1.37742,0.55842 0.37227,0.34746 0.55841,0.8066 0.55842,1.37742 -10e-6,0.57083 -0.19856,1.04238 -0.59564,1.41466 -0.39711,0.37227 -0.84384,0.55841 -1.3402,0.55841 -0.57083,0 -1.04238,-0.19855 -1.41465,-0.59564"
           style="font-weight:500;fill:#b3b3b3;fill-opacity:1;font-family:CMU Serif;-inkscape-font-specification:CMU Serif Medium"
           id="path4047" />
      </g>
      <g
         id="g4053"
         style="font-size:37.22769928px;font-style:normal;font-variant:normal;font-weight:normal;font-stretch:normal;line-height:125%;letter-spacing:0px;word-spacing:0px;fill:#b3b3b3;fill-opacity:1;stroke:none;font-family:Anonymous Pro;-inkscape-font-specification:Anonymous Pro"
         transform="matrix(-0.51363826,-0.85492369,0.85676333,-0.51253537,409.07464,873.65719)">
        <path
           id="path4055"
           style="font-weight:500;fill:#b3b3b3;fill-opacity:1;font-family:CMU Serif;-inkscape-font-specification:CMU Serif Medium"
           d="m 460.91656,330.36551 c -0.37228,-0.3971 -0.55842,-0.85624 -0.55842,-1.37743 0,-0.52118 0.18614,-0.96791 0.55842,-1.34019 0.37227,-0.3971 0.84382,-0.59564 1.41465,-0.59565 0.546,1e-5 1.00514,0.18614 1.37742,0.55842 0.37227,0.34746 0.55841,0.8066 0.55842,1.37742 -10e-6,0.57083 -0.19856,1.04238 -0.59564,1.41466 -0.39711,0.37227 -0.84384,0.55841 -1.3402,0.55841 -0.57083,0 -1.04238,-0.19855 -1.41465,-0.59564"
           inkscape:connector-curvature="0" />
      </g>
      <g
         transform="matrix(-0.99381501,-0.13986747,0.14067797,-0.98808923,855.32443,701.88455)"
         style="font-size:37.22769928px;font-style:normal;font-variant:normal;font-weight:normal;font-stretch:normal;line-height:125%;letter-spacing:0px;word-spacing:0px;fill:#b3b3b3;fill-opacity:1;stroke:none;font-family:Anonymous Pro;-inkscape-font-specification:Anonymous Pro"
         id="g4059">
        <path
           inkscape:connector-curvature="0"
           d="m 460.91656,330.36551 c -0.37228,-0.3971 -0.55842,-0.85624 -0.55842,-1.37743 0,-0.52118 0.18614,-0.96791 0.55842,-1.34019 0.37227,-0.3971 0.84382,-0.59564 1.41465,-0.59565 0.546,1e-5 1.00514,0.18614 1.37742,0.55842 0.37227,0.34746 0.55841,0.8066 0.55842,1.37742 -10e-6,0.57083 -0.19856,1.04238 -0.59564,1.41466 -0.39711,0.37227 -0.84384,0.55841 -1.3402,0.55841 -0.57083,0 -1.04238,-0.19855 -1.41465,-0.59564"
           style="font-weight:500;fill:#b3b3b3;fill-opacity:1;font-family:CMU Serif;-inkscape-font-specification:CMU Serif Medium"
           id="path4061" />
      </g>
      <g
         id="g4065"
         style="font-size:37.22769928px;font-style:normal;font-variant:normal;font-weight:normal;font-stretch:normal;line-height:125%;letter-spacing:0px;word-spacing:0px;fill:#b3b3b3;fill-opacity:1;stroke:none;font-family:Anonymous Pro;-inkscape-font-specification:Anonymous Pro"
         transform="matrix(-0.73764991,0.67763463,-0.68650165,-0.72812224,1003.7041,248.83137)">
        <path
           id="path4067"
           style="font-weight:500;fill:#b3b3b3;fill-opacity:1;font-family:CMU Serif;-inkscape-font-specification:CMU Serif Medium"
           d="m 460.91656,330.36551 c -0.37228,-0.3971 -0.55842,-0.85624 -0.55842,-1.37743 0,-0.52118 0.18614,-0.96791 0.55842,-1.34019 0.37227,-0.3971 0.84382,-0.59564 1.41465,-0.59565 0.546,1e-5 1.00514,0.18614 1.37742,0.55842 0.37227,0.34746 0.55841,0.8066 0.55842,1.37742 -10e-6,0.57083 -0.19856,1.04238 -0.59564,1.41466 -0.39711,0.37227 -0.84384,0.55841 -1.3402,0.55841 -0.57083,0 -1.04238,-0.19855 -1.41465,-0.59564"
           inkscape:connector-curvature="0" />
      </g>
      <g
         transform="matrix(0.06909705,0.99602635,-1.0024359,0.06865524,739.29724,-149.73852)"
         style="font-size:37.22769928px;font-style:normal;font-variant:normal;font-weight:normal;font-stretch:normal;line-height:125%;letter-spacing:0px;word-spacing:0px;fill:#b3b3b3;fill-opacity:1;stroke:none;font-family:Anonymous Pro;-inkscape-font-specification:Anonymous Pro"
         id="g4071">
        <path
           inkscape:connector-curvature="0"
           d="m 460.91656,330.36551 c -0.37228,-0.3971 -0.55842,-0.85624 -0.55842,-1.37743 0,-0.52118 0.18614,-0.96791 0.55842,-1.34019 0.37227,-0.3971 0.84382,-0.59564 1.41465,-0.59565 0.546,1e-5 1.00514,0.18614 1.37742,0.55842 0.37227,0.34746 0.55841,0.8066 0.55842,1.37742 -10e-6,0.57083 -0.19856,1.04238 -0.59564,1.41466 -0.39711,0.37227 -0.84384,0.55841 -1.3402,0.55841 -0.57083,0 -1.04238,-0.19855 -1.41465,-0.59564"
           style="font-weight:500;fill:#b3b3b3;fill-opacity:1;font-family:CMU Serif;-inkscape-font-specification:CMU Serif Medium"
           id="path4073" />
      </g>
      <g
         id="g4077"
         style="font-size:37.22769928px;font-style:normal;font-variant:normal;font-weight:normal;font-stretch:normal;line-height:125%;letter-spacing:0px;word-spacing:0px;fill:#b3b3b3;fill-opacity:1;stroke:none;font-family:Anonymous Pro;-inkscape-font-specification:Anonymous Pro"
         transform="matrix(0.81858215,0.57438948,-0.57438948,0.81858215,263.11976,-198.40632)">
        <path
           id="path4079"
           style="font-weight:500;fill:#b3b3b3;fill-opacity:1;font-family:CMU Serif;-inkscape-font-specification:CMU Serif Medium"
           d="m 460.91656,330.36551 c -0.37228,-0.3971 -0.55842,-0.85624 -0.55842,-1.37743 0,-0.52118 0.18614,-0.96791 0.55842,-1.34019 0.37227,-0.3971 0.84382,-0.59564 1.41465,-0.59565 0.546,1e-5 1.00514,0.18614 1.37742,0.55842 0.37227,0.34746 0.55841,0.8066 0.55842,1.37742 -10e-6,0.57083 -0.19856,1.04238 -0.59564,1.41466 -0.39711,0.37227 -0.84384,0.55841 -1.3402,0.55841 -0.57083,0 -1.04238,-0.19855 -1.41465,-0.59564"
           inkscape:connector-curvature="0" />
      </g>
      <path
         transform="translate(365.67485,354.45468)"
         inkscape:connector-curvature="0"
         id="path4185"
         d="M 96.651786,-25.369141 85.223215,-31.038784"
         style="fill:none;stroke:#b3b3b3;stroke-width:1px;stroke-linecap:butt;stroke-linejoin:miter;stroke-opacity:1" />
      <g
         transform="matrix(0.94780995,-0.32251697,0.32530486,0.93968713,-82.883726,168.94193)"
         id="g4041"
         style="font-size:37.22769928px;font-style:normal;font-variant:normal;font-weight:normal;font-stretch:normal;line-height:125%;letter-spacing:0px;word-spacing:0px;fill:#000000;fill-opacity:1;stroke:none;font-family:Anonymous Pro;-inkscape-font-specification:Anonymous Pro">
        <path
           id="path4043"
           style="font-weight:500;fill:#000000;fill-opacity:1;font-family:CMU Serif;-inkscape-font-specification:CMU Serif Medium"
           d="m 460.91656,330.36551 c -0.37228,-0.3971 -0.55842,-0.85624 -0.55842,-1.37743 0,-0.52118 0.18614,-0.96791 0.55842,-1.34019 0.37227,-0.3971 0.84382,-0.59564 1.41465,-0.59565 0.546,1e-5 1.00514,0.18614 1.37742,0.55842 0.37227,0.34746 0.55841,0.8066 0.55842,1.37742 -10e-6,0.57083 -0.19856,1.04238 -0.59564,1.41466 -0.39711,0.37227 -0.84384,0.55841 -1.3402,0.55841 -0.57083,0 -1.04238,-0.19855 -1.41465,-0.59564"
           inkscape:connector-curvature="0" />
      </g>
      <path
         transform="translate(365.67485,354.45468)"
         inkscape:connector-curvature="0"
         id="path4183"
         d="M 85.178572,-31.12807 86.875,-18.136998"
         style="fill:none;stroke:#b3b3b3;stroke-width:1px;stroke-linecap:butt;stroke-linejoin:miter;stroke-opacity:1" />
      <path
         sodipodi:nodetypes="cc"
         transform="translate(365.67485,354.45468)"
         inkscape:connector-curvature="0"
         id="path4187"
         d="m 96.517858,-37.154855 -11.250001,6.160714"
         style="fill:none;stroke:#b3b3b3;stroke-width:1px;stroke-linecap:butt;stroke-linejoin:miter;stroke-opacity:1" />
      <path
         sodipodi:nodetypes="cc"
         transform="translate(365.67485,354.45468)"
         inkscape:connector-curvature="0"
         id="path4189"
         d="m 87.678572,-44.744141 -2.455357,13.571429"
         style="fill:none;stroke:#b3b3b3;stroke-width:1px;stroke-linecap:butt;stroke-linejoin:miter;stroke-opacity:1" />
      <path
         sodipodi:nodetypes="cc"
         transform="translate(365.67485,354.45468)"
         inkscape:connector-curvature="0"
         id="path4191"
         d="m 76.607143,-42.288784 8.571429,11.160714"
         style="fill:none;stroke:#b3b3b3;stroke-width:1px;stroke-linecap:butt;stroke-linejoin:miter;stroke-opacity:1" />
      <path
         sodipodi:nodetypes="cc"
         transform="translate(365.67485,354.45468)"
         inkscape:connector-curvature="0"
         id="path4193"
         d="M 71.071429,-31.797713 85,-31.172712"
         style="fill:none;stroke:#b3b3b3;stroke-width:1px;stroke-linecap:butt;stroke-linejoin:miter;stroke-opacity:1" />
      <path
         sodipodi:nodetypes="cc"
         transform="translate(365.67485,354.45468)"
         inkscape:connector-curvature="0"
         id="path4195"
         d="m 75.803572,-21.306641 9.375,-9.776786"
         style="fill:none;stroke:#b3b3b3;stroke-width:1px;stroke-linecap:butt;stroke-linejoin:miter;stroke-opacity:1" />
    </g>
    <g
       id="g4234"
       transform="translate(12.321428,-34.464286)">
      <g
         id="g4302"
         transform="matrix(0.96798899,0.25099267,-0.25099267,0.96798899,100.54997,-99.651252)">
        <path
           inkscape:connector-curvature="0"
           id="path4238"
           d="m 456.71602,329.90779 c -0.1844,-0.21791 -0.42464,-0.36697 -0.72978,-0.44651 -0.40686,-0.10603 -0.76111,-0.047 -1.07735,0.15367 -0.33392,0.19606 -0.55912,0.4857 -0.65972,0.87466 -0.0666,0.25771 -0.0518,0.5032 0.01,0.73373 l -6.64203,4.52361 1.16362,-8.22305 c 0.21358,-0.0327 0.41925,-0.10209 0.6053,-0.23929 0.3089,-0.22774 0.50722,-0.52914 0.57863,-0.92427 0.0714,-0.3951 -0.0324,-0.77131 -0.28382,-1.11108 -0.21857,-0.29547 -0.51262,-0.48846 -0.90811,-0.56219 -0.39549,-0.0737 -0.77277,0.0344 -1.11109,0.28382 -0.3383,0.24944 -0.53662,0.55085 -0.57862,0.92428 -0.0567,0.38427 0.0602,0.73728 0.30055,1.06232 0.18382,0.24847 0.4011,0.41866 0.664,0.51114 l -1.16277,8.12524 -5.42545,-6.04663 c 0.17133,-0.22245 0.27251,-0.46807 0.28377,-0.7638 0.0147,-0.38452 -0.11867,-0.73968 -0.3822,-1.04671 -0.26358,-0.307 -0.60164,-0.46015 -1.02292,-0.48168 -0.36634,-0.0187 -0.71028,0.0902 -1.01384,0.34989 -0.30353,0.25968 -0.46561,0.60179 -0.48166,1.02293 -0.016,0.42113 0.11731,0.77632 0.3822,1.04671 0.2643,0.2887 0.6038,0.44463 1.00676,0.46523 0.24488,0.0125 0.45409,-0.0357 0.65321,-0.12479 l 5.50626,6.12885 -8.00583,0.10992 c -0.0739,-0.23757 -0.20409,-0.4637 -0.40204,-0.63932 -0.28903,-0.25639 -0.63822,-0.37762 -1.04023,-0.36769 -0.402,0.01 -0.75261,0.18169 -1.0314,0.49645 -0.2424,0.27372 -0.34732,0.60578 -0.33481,1.0079 0.0125,0.40213 0.17995,0.75058 0.49645,1.03142 0.31654,0.28081 0.66575,0.40204 1.04023,0.36769 0.38823,-0.0222 0.7157,-0.17951 0.98236,-0.48058 0.1853,-0.20924 0.27065,-0.45113 0.31582,-0.6983 l 7.95678,-0.094 -4.66562,5.97544 c -0.24888,-0.11521 -0.51363,-0.13577 -0.79809,-0.0884 -0.37931,0.063 -0.69027,0.24347 -0.93416,0.5625 -0.24392,0.31902 -0.33957,0.69086 -0.27045,1.10629 0.06,0.36124 0.25997,0.67405 0.57895,0.91799 0.31902,0.24391 0.67469,0.32312 1.09012,0.25401 0.41553,-0.0691 0.74282,-0.26568 0.9506,-0.57867 0.22586,-0.31602 0.30367,-0.6766 0.23756,-1.07395 -0.0417,-0.25074 -0.14986,-0.44149 -0.28806,-0.62202 l 4.71496,-6.02393 2.27082,6.98117 c -0.18325,0.12756 -0.33826,0.2875 -0.44454,0.50155 -0.17002,0.34249 -0.20708,0.707 -0.091,1.09153 0.11605,0.3845 0.36587,0.66472 0.74253,0.8542 0.32753,0.16476 0.69189,0.18735 1.07538,0.0745 0.38346,-0.11281 0.66769,-0.33482 0.85391,-0.70994 0.18622,-0.3751 0.20712,-0.75607 0.0748,-1.10796 -0.12421,-0.36821 -0.36638,-0.62392 -0.72666,-0.80517 -0.26158,-0.13158 -0.52023,-0.19584 -0.78109,-0.1698 l -2.23935,-6.85047 7.17095,2.16529 c -0.0165,0.22659 0.0229,0.46411 0.12448,0.68581 0.16063,0.35043 0.42093,0.58583 0.79244,0.74052 0.37149,0.15469 0.75946,0.14946 1.14142,-0.0227 0.33211,-0.14974 0.57309,-0.40624 0.72408,-0.77628 0.15096,-0.37005 0.13678,-0.74148 -0.0392,-1.12526 -0.17593,-0.38378 -0.45239,-0.63563 -0.80859,-0.75696 -0.36385,-0.138 -0.7273,-0.12523 -1.09265,0.0395 -0.26327,0.11862 -0.4494,0.29957 -0.5914,0.51657 l -7.21971,-2.18202 6.69135,-4.57209 c 0.17505,0.18628 0.40328,0.3125 0.66514,0.38074 0.37149,0.0968 0.70929,0.0539 1.06091,-0.13747 0.35161,-0.19143 0.58744,-0.50033 0.69259,-0.90698 0.0915,-0.3536 0.0382,-0.6927 -0.15398,-1.04473 -0.0481,-0.088 -0.0993,-0.18962 -0.16076,-0.26226 z"
           style="font-size:37.22769928px;font-style:normal;font-variant:normal;font-weight:500;font-stretch:normal;line-height:125%;letter-spacing:0px;word-spacing:0px;fill:#fbab18;fill-opacity:1;stroke:none;font-family:CMU Serif;-inkscape-font-specification:CMU Serif Medium" />
        <path
           style="font-size:37.22769928px;font-style:normal;font-variant:normal;font-weight:500;font-stretch:normal;line-height:125%;letter-spacing:0px;word-spacing:0px;fill:#e06225;fill-opacity:1;stroke:none;font-family:CMU Serif;-inkscape-font-specification:CMU Serif Medium"
           d="m 467.4604,330.73695 c -0.0606,-0.15031 -0.16356,-0.27345 -0.31389,-0.37068 -0.20045,-0.12962 -0.40192,-0.1609 -0.60813,-0.10907 -0.21493,0.0462 -0.38791,0.16225 -0.51141,0.35402 -0.0818,0.12706 -0.11754,0.26204 -0.12498,0.39742 l -4.38622,1.25564 2.09179,-4.22563 c 0.12098,0.0204 0.24421,0.0196 0.36892,-0.0212 0.20709,-0.0677 0.36768,-0.19491 0.47654,-0.3952 0.10883,-0.20029 0.1199,-0.42156 0.0449,-0.6495 -0.0652,-0.19821 -0.18936,-0.35462 -0.38942,-0.4648 -0.20008,-0.11013 -0.4227,-0.11912 -0.64952,-0.0449 -0.22679,0.0742 -0.38737,0.20138 -0.47653,0.39521 -0.099,0.19705 -0.0988,0.40818 -0.0272,0.6262 0.0548,0.16668 0.14166,0.29713 0.26692,0.3938 l -2.07392,4.17305 -1.84784,-4.22587 c 0.132,-0.0894 0.23027,-0.20379 0.289,-0.3612 0.0761,-0.20478 0.0677,-0.4199 -0.0196,-0.63234 -0.0874,-0.21243 -0.24238,-0.3552 -0.46565,-0.44184 -0.19416,-0.0753 -0.39896,-0.0779 -0.60885,0.008 -0.20988,0.0859 -0.35819,0.24148 -0.44184,0.46565 -0.0836,0.2242 -0.075,0.43939 0.0196,0.63233 0.0911,0.2027 0.24631,0.34722 0.45986,0.4301 0.12981,0.0503 0.25116,0.0616 0.37437,0.049 l 1.87677,4.28459 -4.33534,-1.36658 c 0.002,-0.14123 -0.0274,-0.28632 -0.10287,-0.41624 -0.11016,-0.18969 -0.2768,-0.31723 -0.49529,-0.38347 -0.21859,-0.0659 -0.43807,-0.0361 -0.64441,0.0839 -0.17943,0.10438 -0.29513,0.2647 -0.36,0.4837 -0.065,0.21897 -0.0367,0.43667 0.0839,0.64444 0.12063,0.20775 0.28729,0.3353 0.49528,0.38348 0.21323,0.0572 0.41779,0.0307 0.61516,-0.0841 0.13716,-0.0798 0.22624,-0.19499 0.29462,-0.32019 l 4.30608,1.36639 -3.57935,2.39028 c -0.11365,-0.10642 -0.25271,-0.16468 -0.41449,-0.1898 -0.21571,-0.0336 -0.41547,0.008 -0.60376,0.13685 -0.18832,0.12854 -0.3061,0.31196 -0.34283,0.54821 -0.032,0.20544 0.0201,0.40968 0.1486,0.59798 0.12854,0.18831 0.30617,0.29436 0.54242,0.33108 0.2363,0.0368 0.44776,-0.0109 0.61551,-0.14264 0.17804,-0.13014 0.28421,-0.31066 0.31933,-0.53664 0.0222,-0.14261 -0.002,-0.26469 -0.0445,-0.38662 l 3.61458,-2.40764 -0.0192,4.16782 c -0.1215,0.0361 -0.23355,0.0948 -0.32897,0.19121 -0.15263,0.15436 -0.23755,0.34425 -0.24349,0.5722 -0.006,0.22795 0.0788,0.4235 0.24816,0.59273 0.14723,0.14711 0.33961,0.22422 0.56644,0.23168 0.22682,0.007 0.41957,-0.0616 0.58676,-0.23063 0.1672,-0.16904 0.24631,-0.3707 0.23768,-0.58395 -0.001,-0.2206 -0.0864,-0.40159 -0.24832,-0.56346 -0.11758,-0.11752 -0.24557,-0.19823 -0.39083,-0.23064 l 0.0129,-4.09177 3.48006,2.44439 c -0.0489,0.11933 -0.0703,0.25427 -0.055,0.39189 0.0242,0.21752 0.12258,0.39078 0.2953,0.54033 0.17272,0.14953 0.38277,0.21587 0.61937,0.19104 0.20569,-0.0216 0.38128,-0.11692 0.52858,-0.28952 0.14728,-0.1726 0.20583,-0.37533 0.17933,-0.61356 -0.0265,-0.23823 -0.13067,-0.42323 -0.30109,-0.55207 -0.17155,-0.13925 -0.36976,-0.19704 -0.59604,-0.17333 -0.16304,0.017 -0.29563,0.0815 -0.41081,0.17315 l -3.50338,-2.4621 4.42145,-1.27299 c 0.0612,0.13159 0.16174,0.24027 0.29075,0.3237 0.18304,0.1183 0.37276,0.15538 0.59641,0.1148 0.22364,-0.0406 0.40579,-0.1651 0.5349,-0.36559 0.11225,-0.17434 0.14397,-0.36661 0.10307,-0.59061 -0.0102,-0.056 -0.0198,-0.11991 -0.04,-0.17001 z"
           id="path4300"
           inkscape:connector-curvature="0" />
      </g>
    </g>
  </g>
</svg>
