<?xml version="1.0" encoding="UTF-8" standalone="no"?>
<!-- Created with Inkscape (http://www.inkscape.org/) -->

<svg
   xmlns:dc="http://purl.org/dc/elements/1.1/"
   xmlns:cc="http://creativecommons.org/ns#"
   xmlns:rdf="http://www.w3.org/1999/02/22-rdf-syntax-ns#"
   xmlns:svg="http://www.w3.org/2000/svg"
   xmlns="http://www.w3.org/2000/svg"
   xmlns:xlink="http://www.w3.org/1999/xlink"
   xmlns:sodipodi="http://sodipodi.sourceforge.net/DTD/sodipodi-0.dtd"
   xmlns:inkscape="http://www.inkscape.org/namespaces/inkscape"
   width="70.026611"
   height="43.34375"
   id="svg2"
   version="1.1"
   inkscape:version="0.48.5 r10040"
   sodipodi:docname="wiki.svg">
  <defs
     id="defs4">
    <linearGradient
       id="linearGradient3839">
      <stop
         style="stop-color:#cbcbcb;stop-opacity:1;"
         offset="0"
         id="stop3841" />
      <stop
         style="stop-color:#adadad;stop-opacity:1;"
         offset="1"
         id="stop3843" />
    </linearGradient>
    <linearGradient
       id="linearGradient4064">
      <stop
         style="stop-color:#1599dc;stop-opacity:1;"
         offset="0"
         id="stop4066" />
      <stop
         id="stop4070"
         offset="0.56904972"
         style="stop-color:#1599dc;stop-opacity:1;" />
      <stop
         style="stop-color:#0976b4;stop-opacity:1;"
         offset="1"
         id="stop4068" />
    </linearGradient>
    <linearGradient
       inkscape:collect="always"
       xlink:href="#linearGradient3734"
       id="linearGradient4750"
       gradientUnits="userSpaceOnUse"
       gradientTransform="translate(394.10418,-179.18497)"
       x1="202.85715"
       y1="445.62701"
       x2="202.85715"
       y2="471.79471" />
    <linearGradient
       id="linearGradient3734">
      <stop
         id="stop3736"
         style="stop-color:#6c6d6f;stop-opacity:1"
         offset="0" />
      <stop
         id="stop3738"
         style="stop-color:#010101;stop-opacity:1"
         offset="1" />
    </linearGradient>
    <linearGradient
       inkscape:collect="always"
       xlink:href="#linearGradient4792"
       id="linearGradient4752"
       gradientUnits="userSpaceOnUse"
       gradientTransform="translate(371.24704,-342.7564)"
       x1="171.1123"
       y1="622.15186"
       x2="291.59088"
       y2="622.15186" />
    <linearGradient
       id="linearGradient4792">
      <stop
         offset="0"
         style="stop-color:#ffffff;stop-opacity:0.72284645;"
         id="stop4794" />
      <stop
         offset="1"
         style="stop-color:#888888;stop-opacity:0.71535581;"
         id="stop4796" />
    </linearGradient>
    <linearGradient
       inkscape:collect="always"
       xlink:href="#linearGradient3734"
       id="linearGradient3378"
       gradientUnits="userSpaceOnUse"
       gradientTransform="translate(394.10418,-179.18497)"
       x1="202.85715"
       y1="445.62701"
       x2="202.85715"
       y2="471.79471" />
    <linearGradient
       id="linearGradient3380">
      <stop
         id="stop3382"
         style="stop-color:#6c6d6f;stop-opacity:1"
         offset="0" />
      <stop
         id="stop3384"
         style="stop-color:#010101;stop-opacity:1"
         offset="1" />
    </linearGradient>
    <linearGradient
       inkscape:collect="always"
       xlink:href="#linearGradient4792"
       id="linearGradient3386"
       gradientUnits="userSpaceOnUse"
       gradientTransform="translate(371.24704,-342.7564)"
       x1="171.1123"
       y1="622.15186"
       x2="291.59088"
       y2="622.15186" />
    <linearGradient
       id="linearGradient3388">
      <stop
         offset="0"
         style="stop-color:#ffffff;stop-opacity:0.72284645;"
         id="stop3390" />
      <stop
         offset="1"
         style="stop-color:#888888;stop-opacity:0.71535581;"
         id="stop3392" />
    </linearGradient>
    <linearGradient
       inkscape:collect="always"
       xlink:href="#linearGradient4368"
       id="linearGradient4754"
       gradientUnits="userSpaceOnUse"
       gradientTransform="translate(512.28023,-178.79463)"
       x1="167.14285"
       y1="408.3056"
       x2="262.32144"
       y2="503.75897" />
    <linearGradient
       id="linearGradient4368">
      <stop
         style="stop-color:#edeff3;stop-opacity:1;"
         offset="0"
         id="stop4370" />
      <stop
         style="stop-color:#ada4ab;stop-opacity:1;"
         offset="1"
         id="stop4374" />
    </linearGradient>
    <linearGradient
       inkscape:collect="always"
       xlink:href="#linearGradient4368"
       id="linearGradient3398"
       gradientUnits="userSpaceOnUse"
       gradientTransform="translate(512.28023,-178.79463)"
       x1="167.14285"
       y1="408.3056"
       x2="262.32144"
       y2="503.75897" />
    <linearGradient
       id="linearGradient3400">
      <stop
         style="stop-color:#edeff3;stop-opacity:1;"
         offset="0"
         id="stop3402" />
      <stop
         style="stop-color:#ada4ab;stop-opacity:1;"
         offset="1"
         id="stop3404" />
    </linearGradient>
    <linearGradient
       y2="503.75897"
       x2="262.32144"
       y1="408.3056"
       x1="167.14285"
       gradientTransform="translate(512.28023,-178.79463)"
       gradientUnits="userSpaceOnUse"
       id="linearGradient3412"
       xlink:href="#linearGradient4368"
       inkscape:collect="always" />
    <radialGradient
       inkscape:collect="always"
       xlink:href="#linearGradient3839"
       id="radialGradient3845"
       cx="858.05377"
       cy="276.34949"
       fx="858.05377"
       fy="276.34949"
       r="20.885803"
       gradientTransform="matrix(0.65119317,0.47044932,-0.66715896,0.92347749,407.06502,-379.75698)"
       gradientUnits="userSpaceOnUse" />
    <linearGradient
       inkscape:collect="always"
       xlink:href="#linearGradient3734"
       id="linearGradient3853"
       x1="760.12329"
       y1="279.06155"
       x2="804.42682"
       y2="279.06155"
       gradientUnits="userSpaceOnUse"
       gradientTransform="matrix(0.98376861,-0.17944168,0.17944168,0.98376861,-38.09215,144.90231)" />
  </defs>
  <sodipodi:namedview
     id="base"
     pagecolor="#ffffff"
     bordercolor="#666666"
     borderopacity="1.0"
     inkscape:pageopacity="0.0"
     inkscape:pageshadow="2"
     inkscape:zoom="1.979899"
     inkscape:cx="17.86625"
     inkscape:cy="40.31467"
     inkscape:document-units="px"
     inkscape:current-layer="g4741"
     showgrid="false"
     fit-margin-top="0"
     fit-margin-left="0"
     fit-margin-right="0"
     fit-margin-bottom="0"
     inkscape:window-width="1916"
     inkscape:window-height="1039"
     inkscape:window-x="0"
     inkscape:window-y="39"
     inkscape:window-maximized="0" />
  <metadata
     id="metadata7">
    <rdf:RDF>
      <cc:Work
         rdf:about="">
        <dc:format>image/svg+xml</dc:format>
        <dc:type
           rdf:resource="http://purl.org/dc/dcmitype/StillImage" />
        <dc:title></dc:title>
      </cc:Work>
    </rdf:RDF>
  </metadata>
  <g
     inkscape:label="Calque 1"
     inkscape:groupmode="layer"
     id="layer1"
     transform="translate(-355.70688,-446.87054)">
    <g
       id="g4741"
       transform="translate(-382.04202,189.46429)"
       inkscape:export-filename="/tmp/logo.png"
       inkscape:export-xdpi="238.3243"
       inkscape:export-ydpi="238.3243">
      <path
         style="fill:url(#radialGradient3845);fill-opacity:1;stroke:url(#linearGradient3853);stroke-width:0.5;stroke-miterlimit:4;stroke-opacity:1;stroke-dasharray:none"
         d="m 763.83995,275.57549 c -1.30636,2.32221 -2.75898,4.99318 -3.62456,7.1243 2.82599,1.55262 6.73399,3.13659 9.43607,4.80756 0.64366,0.64857 1.3295,1.54408 1.22577,2.45193 -0.0807,0.7066 -0.84841,1.14993 -1.35995,1.64402 -0.88166,0.85161 -2.35142,1.15477 -2.9131,2.24428 -0.49975,0.9694 -0.51728,2.2527 -0.12307,3.2696 0.25163,0.64913 0.80656,1.26211 1.46481,1.48881 1.3151,0.45291 3.05307,0.32944 4.13737,-0.54172 1.12246,-0.90181 0.70726,-2.84059 1.47034,-4.06163 0.38631,-0.61806 0.81932,-1.37593 1.52184,-1.57012 0.75599,-0.20895 1.5918,0.21973 2.27291,0.60866 2.81154,2.51884 5.20984,5.00935 7.48286,7.34353 1.5648,-1.4997 4.38585,-4.24654 6.4411,-6.41251 0.77186,-1.11126 1.83125,-2.3509 1.67934,-3.69536 -0.0586,-0.51933 -0.49683,-0.98777 -0.95083,-1.24666 -0.80983,-0.46182 -1.93706,0.076 -2.77753,-0.32737 -1.17782,-0.56527 -2.44716,-1.48983 -2.79291,-2.74969 -0.231,-0.84175 0.16616,-1.81728 0.66685,-2.53227 0.62262,-0.88916 1.59389,-1.76672 2.67568,-1.85605 1.01426,-0.0838 2.00444,0.6234 2.76012,1.30509 0.79741,0.71934 0.83168,2.08329 1.66897,2.75583 0.49349,0.39637 1.16564,0.63331 1.7982,0.61016 0.44862,-0.0165 0.88919,-0.24514 1.24032,-0.52484 0.68244,-0.54372 1.07777,-1.37743 1.53293,-2.12188 1.58432,-2.59154 3.09569,-6.08776 4.14161,-8.1168 -2.3301,-1.17089 -5.1336,-2.35977 -7.62015,-3.69669 -0.90544,-0.48683 -2.03192,-0.75323 -2.65317,-1.57231 -0.3898,-0.51394 -0.51942,-1.22431 -0.50117,-1.86908 0.0142,-0.50021 0.14635,-1.04421 0.47021,-1.42567 0.82502,-0.97173 2.63629,-0.74256 3.38931,-1.77107 0.7256,-0.9907 0.89131,-2.42583 0.64031,-3.6279 -0.12194,-0.58383 -0.49424,-1.15892 -0.99011,-1.49033 -0.94777,-0.63352 -2.25589,-0.95834 -3.35594,-0.65912 -0.87429,0.23785 -1.56359,1.02855 -2.03433,1.80271 -0.60504,0.99492 -0.2664,2.38206 -0.85405,3.38736 -0.28676,0.4905 -0.69214,1.0086 -1.23571,1.17404 -0.73168,0.22281 -1.57992,-0.0392 -2.26193,-0.38544 -2.75115,-2.24123 -6.42125,-6.06353 -7.79407,-7.56836 -2.07806,1.8919 -5.35542,5.3785 -7.67055,7.93553 -0.37581,0.9349 -0.54095,2.18056 0.0121,3.02281 0.24174,0.36812 0.79978,0.37045 1.21031,0.5299 1.40648,0.5463 3.34624,0.27799 4.28484,1.45937 0.77412,0.97433 0.86959,2.57322 0.37359,3.71451 -0.43129,0.99237 -1.52547,1.73691 -2.58295,1.9661 -0.98835,0.21423 -2.13278,-0.089 -2.95826,-0.67321 -0.94167,-0.66648 -1.04849,-2.09415 -1.84659,-2.9272 -0.4025,-0.42011 -0.85371,-0.96902 -1.43502,-0.99365 -0.79075,-0.0335 -1.49051,0.63152 -2.05938,1.18178 -0.7295,0.70563 -1.10482,1.70445 -1.60245,2.58904 z"
         id="path3837"
         inkscape:connector-curvature="0"
         sodipodi:nodetypes="cccccccccccccccccccccccccccccccccccccccccccccccccc" />
      <text
         xml:space="preserve"
         style="font-size:35.19850922px;font-style:normal;font-variant:normal;font-weight:bold;font-stretch:normal;line-height:125%;letter-spacing:0px;word-spacing:0px;fill:#3c3c3c;fill-opacity:1;stroke:none;font-family:CMU Sans Serif;-inkscape-font-specification:CMU Sans Serif Bold"
         x="718.59375"
         y="298.51605"
         id="text3016"
         sodipodi:linespacing="125%"
         transform="scale(1.0223498,0.97813878)"><tspan
           sodipodi:role="line"
           id="tspan3018"
           x="718.59375"
           y="298.51605">.wiki</tspan></text>
    </g>
  </g>
</svg>
